<svg xmlns="http://www.w3.org/2000/svg" version="1.1" xmlns:xlink="http://www.w3.org/1999/xlink" xmlns:svgjs="http://svgjs.dev/svgjs" viewBox="0 0 11.045992421675544 12.460131181572306"><g transform="matrix(1,0,0,1,0.9772930858377729,7.655888095734532)"><rect width="12.460131181572306" height="12.460131181572306" x="-1.6843624657861538" y="-7.655888095734532" fill="#202020"></rect><g><path d=" M 1.2435 0.08549999999999991 L 1.2435 0.11549999999999994 Q 1.1925000000000001 0.11699999999999999 1.16625 0.12674999999999992 Q 1.1400000000000001 0.13649999999999984 1.131 0.16274999999999995 Q 1.122 0.18899999999999995 1.122 0.24449999999999994 L 1.122 0.9884999999999999 Q 1.122 1.0425 1.131 1.0695 Q 1.1400000000000001 1.0965 1.16625 1.1055 Q 1.1925000000000001 1.1145 1.2435 1.1175 L 1.2435 1.1475 Q 1.209 1.1445 1.1572500000000001 1.14375 Q 1.1055 1.143 1.053 1.143 Q 0.9945 1.143 0.9435 1.14375 Q 0.8925000000000001 1.1445 0.861 1.1475 L 0.861 1.1175 Q 0.912 1.1145 0.93825 1.1055 Q 0.9645 1.0965 0.9735 1.0695 Q 0.9825 1.0425 0.9825 0.9884999999999999 L 0.9825 0.16349999999999998 L 0.9885 0.16799999999999993 L 0.621 1.155 L 0.597 1.155 L 0.219 0.1815 L 0.219 0.9734999999999999 Q 0.219 1.0274999999999999 0.22875 1.05825 Q 0.23850000000000002 1.089 0.26775 1.10175 Q 0.297 1.1145 0.3555 1.1175 L 0.3555 1.1475 Q 0.3285 1.1445 0.28500000000000003 1.14375 Q 0.2415 1.143 0.2025 1.143 Q 0.165 1.143 0.12675 1.14375 Q 0.0885 1.1445 0.063 1.1475 L 0.063 1.1175 Q 0.114 1.1145 0.14025 1.10175 Q 0.1665 1.089 0.17550000000000002 1.05825 Q 0.1845 1.0274999999999999 0.1845 0.9734999999999999 L 0.1845 0.24449999999999994 Q 0.1845 0.18899999999999995 0.17550000000000002 0.16274999999999995 Q 0.1665 0.13649999999999984 0.14025 0.12674999999999992 Q 0.114 0.11699999999999999 0.063 0.11549999999999994 L 0.063 0.08549999999999991 Q 0.0885 0.08699999999999997 0.12675 0.08850000000000002 Q 0.165 0.08999999999999986 0.2025 0.08999999999999986 Q 0.23550000000000001 0.08999999999999986 0.27075 0.08850000000000002 Q 0.306 0.08699999999999997 0.33 0.08549999999999991 L 0.6705 0.9824999999999999 L 0.645 0.9944999999999999 L 0.9825 0.08999999999999986 Q 1.0005 0.08999999999999986 1.01775 0.08999999999999986 Q 1.035 0.08999999999999986 1.053 0.08999999999999986 Q 1.1055 0.08999999999999986 1.1572500000000001 0.08850000000000002 Q 1.209 0.08699999999999997 1.2435 0.08549999999999991 M 1.5704501953125 1.158 Q 1.5089501953125002 1.158 1.4639501953125 1.13475 Q 1.4189501953125 1.1115 1.3957001953125001 1.0695 Q 1.3724501953125001 1.0274999999999999 1.3724501953125001 0.972 Q 1.3724501953125001 0.9059999999999999 1.4032001953125002 0.8639999999999999 Q 1.4339501953125002 0.822 1.4819501953125 0.7965 Q 1.5299501953125 0.7709999999999999 1.5832001953125001 0.7537499999999999 Q 1.6364501953125001 0.7364999999999999 1.6844501953125002 0.72075 Q 1.7324501953125 0.705 1.7632001953125 0.6839999999999999 Q 1.7939501953125 0.663 1.7939501953125 0.6285 L 1.7939501953125 0.5355 Q 1.7939501953125 0.4724999999999999 1.7752001953125 0.4395 Q 1.7564501953125 0.4065 1.7249501953125002 0.39525 Q 1.6934501953125 0.3839999999999999 1.6544501953125001 0.3839999999999999 Q 1.6169501953125 0.3839999999999999 1.5742001953125002 0.39449999999999996 Q 1.5314501953125002 0.4049999999999999 1.5059501953125 0.43799999999999994 Q 1.5344501953125 0.44399999999999995 1.5554501953125002 0.46799999999999997 Q 1.5764501953125 0.492 1.5764501953125 0.5295 Q 1.5764501953125 0.567 1.5524501953125 0.58875 Q 1.5284501953125 0.6104999999999999 1.4909501953125002 0.6104999999999999 Q 1.4474501953125 0.6104999999999999 1.4272001953125002 0.58275 Q 1.4069501953125 0.5549999999999999 1.4069501953125 0.5205 Q 1.4069501953125 0.48149999999999993 1.4264501953125002 0.4574999999999999 Q 1.4459501953125002 0.4335 1.4759501953125 0.4125 Q 1.5104501953125 0.38849999999999996 1.5652001953125 0.37124999999999997 Q 1.6199501953125002 0.354 1.6889501953125001 0.354 Q 1.7504501953125002 0.354 1.7939501953125 0.36824999999999997 Q 1.8374501953125 0.38249999999999995 1.8659501953125002 0.4095 Q 1.9049501953125 0.4454999999999999 1.9169501953125 0.49724999999999997 Q 1.9289501953125001 0.5489999999999999 1.9289501953125001 0.621 L 1.9289501953125001 1.038 Q 1.9289501953125001 1.0755 1.9402001953125 1.0919999999999999 Q 1.9514501953125003 1.1085 1.9754501953125 1.1085 Q 1.9919501953125 1.1085 2.0069501953125 1.101 Q 2.0219501953125 1.0935 2.0429501953125 1.077 L 2.0594501953125004 1.1025 Q 2.0279501953125 1.1265 1.9994501953125001 1.14225 Q 1.9709501953125002 1.158 1.9229501953125 1.158 Q 1.8794501953125002 1.158 1.8509501953125 1.143 Q 1.8224501953125003 1.128 1.8082001953125002 1.09875 Q 1.7939501953125 1.0695 1.7939501953125 1.0245 Q 1.7534501953125001 1.0919999999999999 1.6972001953125002 1.125 Q 1.6409501953125 1.158 1.5704501953125 1.158 M 1.6244501953125001 1.0979999999999999 Q 1.6739501953125 1.0979999999999999 1.7167001953125 1.0695 Q 1.7594501953125001 1.041 1.7939501953125 0.984 L 1.7939501953125 0.69 Q 1.7759501953125 0.7155 1.7414501953125001 0.73275 Q 1.7069501953125001 0.75 1.6664501953125002 0.76725 Q 1.6259501953125002 0.7845 1.5892001953125001 0.80775 Q 1.5524501953125 0.831 1.5284501953125 0.8684999999999999 Q 1.5044501953125002 0.9059999999999999 1.5044501953125002 0.966 Q 1.5044501953125002 1.026 1.5367001953125001 1.062 Q 1.5689501953125 1.0979999999999999 1.6244501953125001 1.0979999999999999 M 2.3609289550781254 0.1259999999999999 L 2.3609289550781254 0.37649999999999995 L 2.5829289550781254 0.37649999999999995 L 2.5829289550781254 0.4065 L 2.3609289550781254 0.4065 L 2.3609289550781254 0.987 Q 2.3609289550781254 1.0574999999999999 2.3864289550781255 1.0859999999999999 Q 2.411928955078125 1.1145 2.4569289550781255 1.1145 Q 2.5019289550781254 1.1145 2.5349289550781253 1.07775 Q 2.5679289550781252 1.041 2.5919289550781253 0.954 L 2.6219289550781255 0.9615 Q 2.6069289550781254 1.0485 2.562678955078125 1.1085 Q 2.518428955078125 1.1684999999999999 2.4269289550781252 1.1684999999999999 Q 2.375928955078125 1.1684999999999999 2.342928955078125 1.15575 Q 2.3099289550781252 1.143 2.284428955078125 1.119 Q 2.2514289550781252 1.0845 2.238678955078125 1.0365 Q 2.225928955078125 0.9884999999999999 2.225928955078125 0.9089999999999999 L 2.225928955078125 0.4065 L 2.081928955078125 0.4065 L 2.081928955078125 0.37649999999999995 L 2.225928955078125 0.37649999999999995 L 2.225928955078125 0.14700000000000002 Q 2.2634289550781252 0.14549999999999996 2.2979289550781252 0.14100000000000001 Q 2.332428955078125 0.13649999999999984 2.3609289550781254 0.1259999999999999 M 2.8469677734375005 0.1259999999999999 L 2.8469677734375005 0.37649999999999995 L 3.0689677734375005 0.37649999999999995 L 3.0689677734375005 0.4065 L 2.8469677734375005 0.4065 L 2.8469677734375005 0.987 Q 2.8469677734375005 1.0574999999999999 2.8724677734375 1.0859999999999999 Q 2.8979677734375002 1.1145 2.9429677734375 1.1145 Q 2.9879677734375005 1.1145 3.0209677734375004 1.07775 Q 3.0539677734375004 1.041 3.0779677734375004 0.954 L 3.1079677734375 0.9615 Q 3.0929677734375005 1.0485 3.0487177734375006 1.1085 Q 3.0044677734375003 1.1684999999999999 2.9129677734375004 1.1684999999999999 Q 2.8619677734375 1.1684999999999999 2.8289677734375003 1.15575 Q 2.7959677734375004 1.143 2.7704677734375003 1.119 Q 2.7374677734375004 1.0845 2.7247177734375003 1.0365 Q 2.7119677734375003 0.9884999999999999 2.7119677734375003 0.9089999999999999 L 2.7119677734375003 0.4065 L 2.5679677734375 0.4065 L 2.5679677734375 0.37649999999999995 L 2.7119677734375003 0.37649999999999995 L 2.7119677734375003 0.14700000000000002 Q 2.7494677734375004 0.14549999999999996 2.7839677734375003 0.14100000000000001 Q 2.8184677734375003 0.13649999999999984 2.8469677734375005 0.1259999999999999 M 4.034965576171876 0.0645 Q 4.132465576171875 0.0645 4.192465576171876 0.09375 Q 4.2524655761718755 0.123 4.304965576171876 0.16199999999999992 Q 4.3244655761718755 0.17699999999999994 4.334965576171876 0.17699999999999994 Q 4.363465576171876 0.17699999999999994 4.372465576171876 0.08549999999999991 L 4.406965576171876 0.08549999999999991 Q 4.403965576171876 0.14100000000000001 4.402465576171876 0.22049999999999992 Q 4.400965576171876 0.29999999999999993 4.400965576171876 0.4305 L 4.366465576171875 0.4305 Q 4.355965576171876 0.36749999999999994 4.340965576171875 0.30899999999999994 Q 4.325965576171876 0.25049999999999994 4.291465576171875 0.2084999999999999 Q 4.247965576171875 0.1529999999999999 4.177465576171875 0.12224999999999997 Q 4.106965576171875 0.09149999999999991 4.031965576171876 0.09149999999999991 Q 3.956965576171876 0.09149999999999991 3.8962155761718757 0.12824999999999998 Q 3.8354655761718757 0.16499999999999992 3.791965576171876 0.23399999999999999 Q 3.7484655761718755 0.30299999999999994 3.7252155761718755 0.39974999999999994 Q 3.7019655761718755 0.49649999999999994 3.7019655761718755 0.618 Q 3.7019655761718755 0.8879999999999999 3.7889655761718757 1.01325 Q 3.8759655761718754 1.1385 4.058965576171875 1.1385 Q 4.1129655761718755 1.1385 4.152715576171875 1.12275 Q 4.192465576171876 1.107 4.214965576171876 1.0919999999999999 Q 4.243465576171875 1.0725 4.250965576171875 1.05525 Q 4.258465576171876 1.038 4.258465576171876 1.0095 L 4.258465576171876 0.8654999999999999 Q 4.258465576171876 0.8039999999999999 4.246465576171875 0.774 Q 4.234465576171876 0.744 4.202215576171875 0.7334999999999999 Q 4.169965576171876 0.723 4.106965576171875 0.7215 L 4.106965576171875 0.6915 Q 4.133965576171875 0.693 4.169965576171876 0.69375 Q 4.2059655761718755 0.6944999999999999 4.245715576171875 0.6952499999999999 Q 4.285465576171876 0.696 4.318465576171875 0.696 Q 4.367965576171875 0.696 4.407715576171876 0.6944999999999999 Q 4.447465576171876 0.693 4.474465576171876 0.6915 L 4.474465576171876 0.7215 Q 4.4414655761718755 0.723 4.424965576171876 0.732 Q 4.408465576171876 0.7409999999999999 4.403215576171876 0.768 Q 4.397965576171876 0.7949999999999999 4.397965576171876 0.8505 L 4.397965576171876 1.1475 L 4.367965576171875 1.1475 Q 4.366465576171875 1.1219999999999999 4.356715576171876 1.0919999999999999 Q 4.3469655761718755 1.062 4.327465576171876 1.062 Q 4.318465576171875 1.062 4.309465576171876 1.0665 Q 4.3004655761718755 1.071 4.277965576171876 1.0875 Q 4.2284655761718755 1.125 4.172965576171876 1.14675 Q 4.117465576171876 1.1684999999999999 4.043965576171876 1.1684999999999999 Q 3.8894655761718755 1.1684999999999999 3.7792155761718758 1.10475 Q 3.6689655761718756 1.041 3.6104655761718756 0.9209999999999999 Q 3.5519655761718756 0.8009999999999999 3.5519655761718756 0.6345 Q 3.5519655761718756 0.45899999999999996 3.6149655761718757 0.3314999999999999 Q 3.6779655761718755 0.20399999999999996 3.7867155761718756 0.13424999999999998 Q 3.8954655761718757 0.0645 4.034965576171876 0.0645 M 4.789462646484376 1.158 Q 4.727962646484376 1.158 4.682962646484376 1.13475 Q 4.637962646484376 1.1115 4.614712646484376 1.0695 Q 4.591462646484376 1.0274999999999999 4.591462646484376 0.972 Q 4.591462646484376 0.9059999999999999 4.622212646484376 0.8639999999999999 Q 4.652962646484376 0.822 4.700962646484376 0.7965 Q 4.748962646484376 0.7709999999999999 4.802212646484376 0.7537499999999999 Q 4.8554626464843755 0.7364999999999999 4.903462646484376 0.72075 Q 4.951462646484376 0.705 4.982212646484376 0.6839999999999999 Q 5.012962646484375 0.663 5.012962646484375 0.6285 L 5.012962646484375 0.5355 Q 5.012962646484375 0.4724999999999999 4.9942126464843755 0.4395 Q 4.975462646484376 0.4065 4.943962646484376 0.39525 Q 4.912462646484376 0.3839999999999999 4.873462646484375 0.3839999999999999 Q 4.835962646484376 0.3839999999999999 4.793212646484376 0.39449999999999996 Q 4.750462646484376 0.4049999999999999 4.724962646484376 0.43799999999999994 Q 4.753462646484376 0.44399999999999995 4.774462646484376 0.46799999999999997 Q 4.795462646484376 0.492 4.795462646484376 0.5295 Q 4.795462646484376 0.567 4.771462646484376 0.58875 Q 4.747462646484376 0.6104999999999999 4.709962646484375 0.6104999999999999 Q 4.6664626464843755 0.6104999999999999 4.646212646484376 0.58275 Q 4.625962646484376 0.5549999999999999 4.625962646484376 0.5205 Q 4.625962646484376 0.48149999999999993 4.645462646484376 0.4574999999999999 Q 4.664962646484375 0.4335 4.694962646484376 0.4125 Q 4.729462646484376 0.38849999999999996 4.7842126464843755 0.37124999999999997 Q 4.838962646484376 0.354 4.907962646484376 0.354 Q 4.969462646484375 0.354 5.012962646484375 0.36824999999999997 Q 5.056462646484376 0.38249999999999995 5.084962646484376 0.4095 Q 5.123962646484376 0.4454999999999999 5.1359626464843755 0.49724999999999997 Q 5.147962646484376 0.5489999999999999 5.147962646484376 0.621 L 5.147962646484376 1.038 Q 5.147962646484376 1.0755 5.1592126464843755 1.0919999999999999 Q 5.170462646484376 1.1085 5.194462646484376 1.1085 Q 5.210962646484376 1.1085 5.225962646484376 1.101 Q 5.240962646484376 1.0935 5.261962646484376 1.077 L 5.278462646484376 1.1025 Q 5.246962646484375 1.1265 5.218462646484376 1.14225 Q 5.189962646484376 1.158 5.141962646484376 1.158 Q 5.098462646484376 1.158 5.069962646484376 1.143 Q 5.0414626464843755 1.128 5.027212646484376 1.09875 Q 5.012962646484375 1.0695 5.012962646484375 1.0245 Q 4.9724626464843755 1.0919999999999999 4.916212646484376 1.125 Q 4.859962646484376 1.158 4.789462646484376 1.158 M 4.843462646484376 1.0979999999999999 Q 4.892962646484376 1.0979999999999999 4.935712646484376 1.0695 Q 4.978462646484376 1.041 5.012962646484375 0.984 L 5.012962646484375 0.69 Q 4.9949626464843755 0.7155 4.960462646484376 0.73275 Q 4.9259626464843755 0.75 4.885462646484376 0.76725 Q 4.844962646484376 0.7845 4.8082126464843755 0.80775 Q 4.771462646484376 0.831 4.747462646484376 0.8684999999999999 Q 4.723462646484376 0.9059999999999999 4.723462646484376 0.966 Q 4.723462646484376 1.026 4.755712646484376 1.062 Q 4.787962646484376 1.0979999999999999 4.843462646484376 1.0979999999999999 M 5.509441406250001 0 Q 5.54844140625 0 5.5769414062500005 0.02849999999999997 Q 5.605441406250001 0.05699999999999994 5.605441406250001 0.09599999999999986 Q 5.605441406250001 0.135 5.5769414062500005 0.16349999999999998 Q 5.54844140625 0.19199999999999995 5.509441406250001 0.19199999999999995 Q 5.470441406250001 0.19199999999999995 5.441941406250001 0.16349999999999998 Q 5.4134414062500005 0.135 5.4134414062500005 0.09599999999999986 Q 5.4134414062500005 0.05699999999999994 5.441941406250001 0.02849999999999997 Q 5.470441406250001 0 5.509441406250001 0 M 5.587441406250001 0.35849999999999993 L 5.587441406250001 1.008 Q 5.587441406250001 1.071 5.61369140625 1.0935 Q 5.63994140625 1.1159999999999999 5.701441406250001 1.1159999999999999 L 5.701441406250001 1.1475 Q 5.675941406250001 1.146 5.6241914062500005 1.14375 Q 5.57244140625 1.1415 5.51994140625 1.1415 Q 5.468941406250001 1.1415 5.416441406250001 1.14375 Q 5.36394140625 1.146 5.33844140625 1.1475 L 5.33844140625 1.1159999999999999 Q 5.399941406250001 1.1159999999999999 5.42619140625 1.0935 Q 5.45244140625 1.071 5.45244140625 1.008 L 5.45244140625 0.5385 Q 5.45244140625 0.471 5.42844140625 0.43875 Q 5.40444140625 0.4065 5.33844140625 0.4065 L 5.33844140625 0.375 Q 5.38644140625 0.37949999999999995 5.43144140625 0.37949999999999995 Q 5.47494140625 0.37949999999999995 5.514691406250001 0.37424999999999997 Q 5.5544414062500005 0.369 5.587441406250001 0.35849999999999993 M 6.296986083984375 0.354 Q 6.353986083984375 0.354 6.3922360839843755 0.369 Q 6.430486083984375 0.3839999999999999 6.455986083984375 0.4109999999999999 Q 6.484486083984375 0.44099999999999995 6.496486083984375 0.486 Q 6.5084860839843754 0.5309999999999999 6.5084860839843754 0.6074999999999999 L 6.5084860839843754 1.008 Q 6.5084860839843754 1.071 6.5347360839843756 1.0935 Q 6.560986083984375 1.1159999999999999 6.622486083984375 1.1159999999999999 L 6.622486083984375 1.1475 Q 6.596986083984375 1.146 6.544486083984375 1.14375 Q 6.491986083984375 1.1415 6.442486083984376 1.1415 Q 6.3929860839843755 1.1415 6.3457360839843755 1.14375 Q 6.2984860839843755 1.146 6.2744860839843755 1.1475 L 6.2744860839843755 1.1159999999999999 Q 6.328486083984375 1.1159999999999999 6.350986083984375 1.0935 Q 6.373486083984375 1.071 6.373486083984375 1.008 L 6.373486083984375 0.5744999999999999 Q 6.373486083984375 0.5279999999999999 6.365986083984375 0.489 Q 6.358486083984375 0.44999999999999996 6.332236083984375 0.42599999999999993 Q 6.305986083984375 0.4019999999999999 6.2519860839843755 0.4019999999999999 Q 6.188986083984375 0.4019999999999999 6.141736083984375 0.43799999999999994 Q 6.094486083984375 0.474 6.068236083984375 0.53625 Q 6.041986083984375 0.5984999999999999 6.041986083984375 0.6749999999999999 L 6.041986083984375 1.008 Q 6.041986083984375 1.071 6.0644860839843755 1.0935 Q 6.0869860839843755 1.1159999999999999 6.140986083984375 1.1159999999999999 L 6.140986083984375 1.1475 Q 6.116986083984375 1.146 6.069736083984375 1.14375 Q 6.022486083984375 1.1415 5.972986083984375 1.1415 Q 5.9234860839843755 1.1415 5.870986083984375 1.14375 Q 5.818486083984375 1.146 5.792986083984375 1.1475 L 5.792986083984375 1.1159999999999999 Q 5.8544860839843755 1.1159999999999999 5.880736083984375 1.0935 Q 5.906986083984375 1.071 5.906986083984375 1.008 L 5.906986083984375 0.5385 Q 5.906986083984375 0.471 5.882986083984375 0.43875 Q 5.858986083984375 0.4065 5.792986083984375 0.4065 L 5.792986083984375 0.375 Q 5.840986083984375 0.37949999999999995 5.885986083984375 0.37949999999999995 Q 5.929486083984375 0.37949999999999995 5.969236083984375 0.37424999999999997 Q 6.008986083984375 0.369 6.041986083984375 0.35849999999999993 L 6.041986083984375 0.5355 Q 6.080986083984375 0.4335 6.150736083984375 0.39374999999999993 Q 6.220486083984375 0.354 6.296986083984375 0.354 M 7.06796337890625 0.354 Q 7.19996337890625 0.354 7.27421337890625 0.4342499999999999 Q 7.34846337890625 0.5145 7.34846337890625 0.6839999999999999 L 6.81896337890625 0.6839999999999999 L 6.8174633789062495 0.6555 L 7.20446337890625 0.6555 Q 7.20746337890625 0.582 7.1924633789062495 0.5197499999999999 Q 7.17746337890625 0.4574999999999999 7.1452133789062495 0.41999999999999993 Q 7.11296337890625 0.38249999999999995 7.06196337890625 0.38249999999999995 Q 6.99296337890625 0.38249999999999995 6.93971337890625 0.4514999999999999 Q 6.8864633789062495 0.5205 6.87596337890625 0.6704999999999999 L 6.88046337890625 0.6764999999999999 Q 6.87746337890625 0.699 6.87596337890625 0.726 Q 6.87446337890625 0.7529999999999999 6.87446337890625 0.78 Q 6.87446337890625 0.8819999999999999 6.907463378906249 0.9555 Q 6.94046337890625 1.029 6.99371337890625 1.06725 Q 7.04696337890625 1.1055 7.10396337890625 1.1055 Q 7.14896337890625 1.1055 7.189463378906249 1.09125 Q 7.22996337890625 1.077 7.26446337890625 1.044 Q 7.29896337890625 1.011 7.32446337890625 0.9555 L 7.3544633789062495 0.9675 Q 7.33796337890625 1.017 7.30046337890625 1.0635 Q 7.2629633789062495 1.1099999999999999 7.20596337890625 1.1392499999999999 Q 7.14896337890625 1.1684999999999999 7.0739633789062495 1.1684999999999999 Q 6.96596337890625 1.1684999999999999 6.88871337890625 1.119 Q 6.81146337890625 1.0695 6.7702133789062495 0.9817499999999999 Q 6.72896337890625 0.8939999999999999 6.72896337890625 0.78 Q 6.72896337890625 0.6479999999999999 6.7709633789062496 0.55275 Q 6.812963378906249 0.4574999999999999 6.88946337890625 0.40574999999999994 Q 6.96596337890625 0.354 7.06796337890625 0.354 M 7.943935546874999 0.354 Q 7.984435546875 0.354 8.015185546875 0.37049999999999994 Q 8.045935546874999 0.3869999999999999 8.063185546875 0.4132499999999999 Q 8.080435546875 0.4395 8.080435546875 0.4724999999999999 Q 8.080435546875 0.5099999999999999 8.057185546874999 0.5385 Q 8.033935546875 0.567 7.994935546874999 0.567 Q 7.963435546874999 0.567 7.939435546875 0.54675 Q 7.915435546874999 0.5265 7.915435546874999 0.489 Q 7.915435546874999 0.4604999999999999 7.931185546875 0.4402499999999999 Q 7.946935546874999 0.41999999999999993 7.966435546874999 0.4079999999999999 Q 7.955935546875 0.3929999999999999 7.934935546875 0.3929999999999999 Q 7.888435546875 0.3929999999999999 7.849435546874999 0.42074999999999996 Q 7.8104355468749995 0.4484999999999999 7.783435546874999 0.492 Q 7.756435546874999 0.5355 7.741435546875 0.5842499999999999 Q 7.726435546874999 0.633 7.726435546874999 0.6749999999999999 L 7.726435546874999 0.993 Q 7.726435546874999 1.0665 7.769185546875 1.09125 Q 7.811935546875 1.1159999999999999 7.885435546875 1.1159999999999999 L 7.885435546875 1.1475 Q 7.850935546874999 1.146 7.787935546875 1.14375 Q 7.724935546875 1.1415 7.654435546875 1.1415 Q 7.603435546875 1.1415 7.5531855468749995 1.14375 Q 7.502935546874999 1.146 7.477435546874999 1.1475 L 7.477435546874999 1.1159999999999999 Q 7.538935546875 1.1159999999999999 7.565185546874999 1.0935 Q 7.591435546874999 1.071 7.591435546874999 1.008 L 7.591435546874999 0.5385 Q 7.591435546874999 0.471 7.567435546874999 0.43875 Q 7.543435546874999 0.4065 7.477435546874999 0.4065 L 7.477435546874999 0.375 Q 7.525435546874999 0.37949999999999995 7.570435546874999 0.37949999999999995 Q 7.613935546874999 0.37949999999999995 7.653685546875 0.37424999999999997 Q 7.6934355468749995 0.369 7.726435546874999 0.35849999999999993 L 7.726435546874999 0.5459999999999999 Q 7.742935546875 0.5025 7.773685546874999 0.45824999999999994 Q 7.804435546874999 0.4139999999999999 7.847935546874999 0.3839999999999999 Q 7.891435546875 0.354 7.943935546874999 0.354 M 0.47250000000000003 1.5824999999999998 Q 0.741 1.5824999999999998 0.8715 1.7167499999999998 Q 1.002 1.851 1.002 2.1014999999999997 Q 1.002 2.2649999999999997 0.93825 2.38725 Q 0.8745 2.5095 0.753 2.577 Q 0.6315000000000001 2.6445 0.459 2.6445 Q 0.4365 2.6445 0.399 2.643 Q 0.3615 2.6414999999999997 0.32175 2.6407499999999997 Q 0.28200000000000003 2.6399999999999997 0.249 2.6399999999999997 Q 0.1965 2.6399999999999997 0.1455 2.6407499999999997 Q 0.0945 2.6414999999999997 0.063 2.6445 L 0.063 2.6145 Q 0.114 2.6115 0.14025 2.6025 Q 0.1665 2.5934999999999997 0.17550000000000002 2.5665 Q 0.1845 2.5395 0.1845 2.4855 L 0.1845 1.7414999999999998 Q 0.1845 1.686 0.17550000000000002 1.6597499999999998 Q 0.1665 1.6334999999999997 0.14025 1.6237499999999998 Q 0.114 1.6139999999999999 0.063 1.6124999999999998 L 0.063 1.5824999999999998 Q 0.0945 1.5839999999999999 0.1455 1.58625 Q 0.1965 1.5884999999999998 0.246 1.5869999999999997 Q 0.2985 1.5855 0.3645 1.5839999999999999 Q 0.4305 1.5824999999999998 0.47250000000000003 1.5824999999999998 M 0.435 1.6095 Q 0.366 1.6095 0.34500000000000003 1.6349999999999998 Q 0.324 1.6604999999999999 0.324 1.7384999999999997 L 0.324 2.4884999999999997 Q 0.324 2.5665 0.34575 2.5919999999999996 Q 0.3675 2.6174999999999997 0.4365 2.6174999999999997 Q 0.6 2.6174999999999997 0.6900000000000001 2.5582499999999997 Q 0.78 2.4989999999999997 0.8160000000000001 2.385 Q 0.852 2.271 0.852 2.1075 Q 0.852 1.9394999999999998 0.81225 1.8292499999999998 Q 0.7725 1.7189999999999999 0.68175 1.6642499999999998 Q 0.591 1.6095 0.435 1.6095 M 1.50753369140625 1.851 Q 1.6395336914062502 1.851 1.71378369140625 1.93125 Q 1.78803369140625 2.0115 1.78803369140625 2.181 L 1.2585336914062502 2.181 L 1.25703369140625 2.1525 L 1.64403369140625 2.1525 Q 1.64703369140625 2.0789999999999997 1.63203369140625 2.01675 Q 1.6170336914062502 1.9545 1.58478369140625 1.9169999999999998 Q 1.5525336914062502 1.8794999999999997 1.5015336914062503 1.8794999999999997 Q 1.43253369140625 1.8794999999999997 1.37928369140625 1.9484999999999997 Q 1.32603369140625 2.0175 1.31553369140625 2.1675 L 1.32003369140625 2.1734999999999998 Q 1.3170336914062502 2.1959999999999997 1.31553369140625 2.223 Q 1.31403369140625 2.25 1.31403369140625 2.2769999999999997 Q 1.31403369140625 2.379 1.3470336914062502 2.4524999999999997 Q 1.38003369140625 2.526 1.4332836914062501 2.56425 Q 1.4865336914062501 2.6025 1.54353369140625 2.6025 Q 1.58853369140625 2.6025 1.6290336914062502 2.58825 Q 1.6695336914062502 2.574 1.7040336914062502 2.541 Q 1.7385336914062501 2.508 1.76403369140625 2.4524999999999997 L 1.7940336914062502 2.4644999999999997 Q 1.77753369140625 2.514 1.74003369140625 2.5604999999999998 Q 1.70253369140625 2.6069999999999998 1.6455336914062502 2.63625 Q 1.58853369140625 2.6654999999999998 1.5135336914062503 2.6654999999999998 Q 1.4055336914062502 2.6654999999999998 1.3282836914062501 2.6159999999999997 Q 1.25103369140625 2.5665 1.20978369140625 2.47875 Q 1.16853369140625 2.391 1.16853369140625 2.2769999999999997 Q 1.16853369140625 2.145 1.2105336914062501 2.04975 Q 1.2525336914062501 1.9545 1.3290336914062502 1.9027499999999997 Q 1.4055336914062502 1.851 1.50753369140625 1.851 M 2.5964633789062503 1.8719999999999999 L 2.5964633789062503 1.9019999999999997 Q 2.56796337890625 1.9049999999999998 2.54396337890625 1.9274999999999998 Q 2.51996337890625 1.9499999999999997 2.49896337890625 2.0069999999999997 L 2.25296337890625 2.6519999999999997 Q 2.2469633789062504 2.6519999999999997 2.24096337890625 2.6519999999999997 Q 2.2349633789062504 2.6519999999999997 2.22746337890625 2.6519999999999997 L 1.9514633789062503 1.9874999999999998 Q 1.9274633789062503 1.9289999999999998 1.9042133789062503 1.9162499999999998 Q 1.8809633789062503 1.9034999999999997 1.8644633789062504 1.9034999999999997 L 1.8644633789062504 1.8719999999999999 Q 1.8944633789062502 1.8735 1.9267133789062503 1.8757499999999998 Q 1.9589633789062502 1.8779999999999997 1.9964633789062503 1.8779999999999997 Q 2.0429633789062502 1.8779999999999997 2.0947133789062504 1.8764999999999998 Q 2.14646337890625 1.875 2.19146337890625 1.8719999999999999 L 2.19146337890625 1.9034999999999997 Q 2.1539633789062504 1.9034999999999997 2.1247133789062502 1.90875 Q 2.0954633789062505 1.9139999999999997 2.08721337890625 1.9379999999999997 Q 2.0789633789062503 1.9619999999999997 2.1014633789062502 2.0204999999999997 L 2.2889633789062502 2.484 L 2.2799633789062503 2.4915 L 2.45096337890625 2.0429999999999997 Q 2.47046337890625 1.9934999999999998 2.4667133789062503 1.9642499999999998 Q 2.46296337890625 1.9349999999999998 2.4367133789062505 1.92 Q 2.4104633789062504 1.9049999999999998 2.35646337890625 1.9019999999999997 L 2.35646337890625 1.8719999999999999 Q 2.3834633789062503 1.8735 2.40296337890625 1.87425 Q 2.4224633789062504 1.875 2.4412133789062502 1.8757499999999998 Q 2.4599633789062505 1.8764999999999998 2.4824633789062505 1.8764999999999998 Q 2.51696337890625 1.8764999999999998 2.54471337890625 1.875 Q 2.5724633789062503 1.8735 2.5964633789062503 1.8719999999999999 M 3.0105256347656253 1.851 Q 3.1425256347656254 1.851 3.216775634765625 1.93125 Q 3.2910256347656253 2.0115 3.2910256347656253 2.181 L 2.761525634765625 2.181 L 2.7600256347656256 2.1525 L 3.147025634765625 2.1525 Q 3.1500256347656252 2.0789999999999997 3.1350256347656256 2.01675 Q 3.1200256347656254 1.9545 3.0877756347656256 1.9169999999999998 Q 3.055525634765625 1.8794999999999997 3.0045256347656255 1.8794999999999997 Q 2.9355256347656256 1.8794999999999997 2.8822756347656253 1.9484999999999997 Q 2.8290256347656255 2.0175 2.8185256347656256 2.1675 L 2.8230256347656253 2.1734999999999998 Q 2.820025634765625 2.1959999999999997 2.8185256347656256 2.223 Q 2.8170256347656255 2.25 2.8170256347656255 2.2769999999999997 Q 2.8170256347656255 2.379 2.8500256347656254 2.4524999999999997 Q 2.8830256347656253 2.526 2.936275634765625 2.56425 Q 2.9895256347656254 2.6025 3.0465256347656253 2.6025 Q 3.0915256347656253 2.6025 3.1320256347656255 2.58825 Q 3.172525634765625 2.574 3.2070256347656256 2.541 Q 3.241525634765625 2.508 3.2670256347656252 2.4524999999999997 L 3.2970256347656255 2.4644999999999997 Q 3.2805256347656253 2.514 3.243025634765625 2.5604999999999998 Q 3.2055256347656256 2.6069999999999998 3.148525634765625 2.63625 Q 3.0915256347656253 2.6654999999999998 3.0165256347656255 2.6654999999999998 Q 2.9085256347656254 2.6654999999999998 2.8312756347656256 2.6159999999999997 Q 2.7540256347656253 2.5665 2.7127756347656256 2.47875 Q 2.6715256347656253 2.391 2.6715256347656253 2.2769999999999997 Q 2.6715256347656253 2.145 2.7135256347656256 2.04975 Q 2.7555256347656254 1.9545 2.832025634765625 1.9027499999999997 Q 2.9085256347656254 1.851 3.0105256347656253 1.851 M 3.6584978027343755 1.4685 L 3.6584978027343755 2.505 Q 3.6584978027343755 2.568 3.6847478027343756 2.5905 Q 3.7109978027343757 2.613 3.7724978027343754 2.613 L 3.7724978027343754 2.6445 Q 3.7469978027343753 2.643 3.6952478027343756 2.6407499999999997 Q 3.6434978027343754 2.6385 3.5909978027343756 2.6385 Q 3.5399978027343755 2.6385 3.4874978027343757 2.6407499999999997 Q 3.4349978027343755 2.643 3.4094978027343754 2.6445 L 3.4094978027343754 2.613 Q 3.4709978027343755 2.613 3.4972478027343756 2.5905 Q 3.5234978027343753 2.568 3.5234978027343753 2.505 L 3.5234978027343753 1.6484999999999999 Q 3.5234978027343753 1.5809999999999997 3.4994978027343757 1.5487499999999998 Q 3.4754978027343757 1.5164999999999997 3.4094978027343754 1.5164999999999997 L 3.4094978027343754 1.4849999999999999 Q 3.4574978027343755 1.4894999999999998 3.5024978027343754 1.4894999999999998 Q 3.5459978027343757 1.4894999999999998 3.5857478027343754 1.4842499999999998 Q 3.6254978027343756 1.4789999999999999 3.6584978027343755 1.4685 M 4.216499267578126 1.851 Q 4.312499267578126 1.851 4.388999267578126 1.8929999999999998 Q 4.465499267578125 1.9349999999999998 4.511249267578125 2.025 Q 4.556999267578126 2.1149999999999998 4.556999267578126 2.259 Q 4.556999267578126 2.403 4.511249267578125 2.49225 Q 4.465499267578125 2.5814999999999997 4.388999267578126 2.6235 Q 4.312499267578126 2.6654999999999998 4.216499267578126 2.6654999999999998 Q 4.121999267578126 2.6654999999999998 4.044749267578125 2.6235 Q 3.9674992675781255 2.5814999999999997 3.9217492675781256 2.49225 Q 3.8759992675781256 2.403 3.8759992675781256 2.259 Q 3.8759992675781256 2.1149999999999998 3.9217492675781256 2.025 Q 3.9674992675781255 1.9349999999999998 4.044749267578125 1.8929999999999998 Q 4.121999267578126 1.851 4.216499267578126 1.851 M 4.216499267578126 1.8809999999999998 Q 4.130999267578126 1.8809999999999998 4.076249267578126 1.9694999999999998 Q 4.021499267578125 2.058 4.021499267578125 2.259 Q 4.021499267578125 2.46 4.076249267578126 2.5477499999999997 Q 4.130999267578126 2.6355 4.216499267578126 2.6355 Q 4.301999267578125 2.6355 4.356749267578126 2.5477499999999997 Q 4.411499267578126 2.46 4.411499267578126 2.259 Q 4.411499267578126 2.058 4.356749267578126 1.9694999999999998 Q 4.301999267578125 1.8809999999999998 4.216499267578126 1.8809999999999998 M 4.924459716796876 1.8554999999999997 L 4.924459716796876 2.7765 Q 4.924459716796876 2.8409999999999997 4.9627097167968754 2.8627499999999997 Q 5.000959716796876 2.8845 5.068459716796876 2.8845 L 5.068459716796876 2.916 Q 5.0354597167968755 2.9145 4.976959716796876 2.91225 Q 4.9184597167968755 2.9099999999999997 4.852459716796876 2.9099999999999997 Q 4.805959716796876 2.9099999999999997 4.760209716796876 2.91225 Q 4.714459716796876 2.9145 4.690459716796876 2.916 L 4.690459716796876 2.8845 Q 4.744459716796876 2.8845 4.766959716796876 2.8649999999999998 Q 4.789459716796876 2.8455 4.789459716796876 2.7914999999999996 L 4.789459716796876 2.0355 Q 4.789459716796876 1.968 4.765459716796876 1.9357499999999999 Q 4.741459716796876 1.9034999999999997 4.675459716796876 1.9034999999999997 L 4.675459716796876 1.8719999999999999 Q 4.723459716796876 1.8764999999999998 4.768459716796876 1.8764999999999998 Q 4.811959716796876 1.8764999999999998 4.851709716796876 1.8712499999999999 Q 4.891459716796875 1.8659999999999999 4.924459716796876 1.8554999999999997 M 5.164459716796876 1.851 Q 5.2439597167968754 1.851 5.306959716796876 1.8937499999999998 Q 5.369959716796876 1.9364999999999999 5.406709716796875 2.0189999999999997 Q 5.443459716796876 2.1014999999999997 5.443459716796876 2.223 Q 5.443459716796876 2.304 5.423959716796876 2.3827499999999997 Q 5.404459716796875 2.4615 5.3632097167968755 2.5252499999999998 Q 5.321959716796876 2.589 5.256709716796876 2.6272499999999996 Q 5.191459716796876 2.6654999999999998 5.099959716796876 2.6654999999999998 Q 5.029459716796875 2.6654999999999998 4.977709716796876 2.6325 Q 4.925959716796876 2.5995 4.907959716796876 2.553 L 4.922959716796876 2.532 Q 4.943959716796876 2.574 4.983709716796875 2.6025 Q 5.023459716796876 2.631 5.083459716796876 2.631 Q 5.167459716796876 2.631 5.213959716796876 2.5785 Q 5.260459716796876 2.526 5.279209716796876 2.43825 Q 5.297959716796876 2.3505 5.297959716796876 2.2439999999999998 Q 5.297959716796876 2.1239999999999997 5.278459716796876 2.0475 Q 5.258959716796876 1.9709999999999999 5.219959716796875 1.9335 Q 5.180959716796876 1.896 5.123959716796875 1.896 Q 5.050459716796876 1.896 4.990459716796876 1.95675 Q 4.930459716796876 2.0175 4.913959716796875 2.1405 L 4.895959716796876 2.1195 Q 4.912459716796876 1.992 4.9867097167968755 1.9215 Q 5.060959716796876 1.851 5.164459716796876 1.851 M 6.0674501953125 1.851 Q 6.119950195312501 1.851 6.1589501953125 1.8659999999999999 Q 6.197950195312501 1.8809999999999998 6.2234501953125 1.908 Q 6.2519501953125 1.9379999999999997 6.262450195312501 1.9859999999999998 Q 6.2729501953125 2.034 6.2729501953125 2.1045 L 6.2729501953125 2.505 Q 6.2729501953125 2.568 6.2992001953125 2.5905 Q 6.3254501953125 2.613 6.3869501953125 2.613 L 6.3869501953125 2.6445 Q 6.3614501953125 2.643 6.308950195312501 2.6407499999999997 Q 6.2564501953125005 2.6385 6.2069501953125 2.6385 Q 6.1574501953125 2.6385 6.1102001953125 2.6407499999999997 Q 6.0629501953125 2.643 6.0389501953125 2.6445 L 6.0389501953125 2.613 Q 6.0929501953125005 2.613 6.1154501953125004 2.5905 Q 6.1379501953125 2.568 6.1379501953125 2.505 L 6.1379501953125 2.0715 Q 6.1379501953125 2.025 6.1319501953125 1.9859999999999998 Q 6.1259501953125 1.9469999999999998 6.101950195312501 1.9229999999999998 Q 6.077950195312501 1.8989999999999998 6.0239501953125005 1.8989999999999998 Q 5.9654501953125 1.8989999999999998 5.9197001953125 1.9349999999999998 Q 5.8739501953125 1.9709999999999999 5.8477001953125 2.03325 Q 5.821450195312501 2.0955 5.821450195312501 2.1719999999999997 L 5.821450195312501 2.505 Q 5.821450195312501 2.568 5.843950195312501 2.5905 Q 5.866450195312501 2.613 5.9204501953125 2.613 L 5.9204501953125 2.6445 Q 5.8964501953125 2.643 5.8492001953125 2.6407499999999997 Q 5.8019501953125 2.6385 5.7524501953125 2.6385 Q 5.702950195312501 2.6385 5.650450195312501 2.6407499999999997 Q 5.5979501953125 2.643 5.5724501953125 2.6445 L 5.5724501953125 2.613 Q 5.633950195312501 2.613 5.6602001953125 2.5905 Q 5.6864501953125 2.568 5.6864501953125 2.505 L 5.6864501953125 2.0355 Q 5.6864501953125 1.968 5.6624501953125 1.9357499999999999 Q 5.6384501953125 1.9034999999999997 5.5724501953125 1.9034999999999997 L 5.5724501953125 1.8719999999999999 Q 5.6204501953125 1.8764999999999998 5.6654501953125 1.8764999999999998 Q 5.7089501953125 1.8764999999999998 5.748700195312501 1.8712499999999999 Q 5.7884501953125005 1.8659999999999999 5.821450195312501 1.8554999999999997 L 5.821450195312501 2.0324999999999998 Q 5.8604501953125006 1.9349999999999998 5.9279501953125004 1.8929999999999998 Q 5.9954501953125 1.851 6.0674501953125 1.851 M 6.518950195312501 1.851 Q 6.571450195312501 1.851 6.6104501953125006 1.8659999999999999 Q 6.6494501953125 1.8809999999999998 6.6749501953125 1.908 Q 6.7034501953125005 1.9379999999999997 6.713950195312501 1.9859999999999998 Q 6.7244501953125 2.034 6.7244501953125 2.1045 L 6.7244501953125 2.505 Q 6.7244501953125 2.568 6.7507001953125005 2.5905 Q 6.776950195312501 2.613 6.8384501953125 2.613 L 6.8384501953125 2.6445 Q 6.8129501953125 2.643 6.760450195312501 2.6407499999999997 Q 6.707950195312501 2.6385 6.658450195312501 2.6385 Q 6.6089501953125005 2.6385 6.5617001953125005 2.6407499999999997 Q 6.5144501953125005 2.643 6.4904501953125004 2.6445 L 6.4904501953125004 2.613 Q 6.544450195312501 2.613 6.566950195312501 2.5905 Q 6.589450195312501 2.568 6.589450195312501 2.505 L 6.589450195312501 2.0715 Q 6.589450195312501 2.025 6.5834501953125 1.9859999999999998 Q 6.5774501953125 1.9469999999999998 6.5534501953125 1.9229999999999998 Q 6.5294501953125 1.8989999999999998 6.475450195312501 1.8989999999999998 Q 6.4169501953125 1.8989999999999998 6.3712001953125 1.9349999999999998 Q 6.3254501953125 1.9709999999999999 6.2992001953125 2.0324999999999998 Q 6.2729501953125 2.094 6.2729501953125 2.1704999999999997 L 6.2684501953125 2.0309999999999997 Q 6.308950195312501 1.9274999999999998 6.377950195312501 1.8892499999999999 Q 6.446950195312501 1.851 6.518950195312501 1.851 M 7.283950927734376 1.851 Q 7.415950927734376 1.851 7.490200927734376 1.93125 Q 7.564450927734376 2.0115 7.564450927734376 2.181 L 7.034950927734376 2.181 L 7.033450927734376 2.1525 L 7.420450927734376 2.1525 Q 7.423450927734376 2.0789999999999997 7.408450927734376 2.01675 Q 7.393450927734376 1.9545 7.361200927734376 1.9169999999999998 Q 7.328950927734376 1.8794999999999997 7.277950927734376 1.8794999999999997 Q 7.208950927734376 1.8794999999999997 7.155700927734376 1.9484999999999997 Q 7.102450927734376 2.0175 7.091950927734376 2.1675 L 7.096450927734376 2.1734999999999998 Q 7.093450927734376 2.1959999999999997 7.091950927734376 2.223 Q 7.090450927734376 2.25 7.090450927734376 2.2769999999999997 Q 7.090450927734376 2.379 7.123450927734376 2.4524999999999997 Q 7.156450927734376 2.526 7.209700927734376 2.56425 Q 7.2629509277343764 2.6025 7.319950927734376 2.6025 Q 7.364950927734376 2.6025 7.405450927734376 2.58825 Q 7.445950927734376 2.574 7.480450927734376 2.541 Q 7.514950927734376 2.508 7.540450927734376 2.4524999999999997 L 7.570450927734376 2.4644999999999997 Q 7.553950927734376 2.514 7.516450927734376 2.5604999999999998 Q 7.478950927734376 2.6069999999999998 7.421950927734376 2.63625 Q 7.364950927734376 2.6654999999999998 7.289950927734376 2.6654999999999998 Q 7.181950927734376 2.6654999999999998 7.104700927734376 2.6159999999999997 Q 7.027450927734376 2.5665 6.986200927734376 2.47875 Q 6.944950927734376 2.391 6.944950927734376 2.2769999999999997 Q 6.944950927734376 2.145 6.986950927734376 2.04975 Q 7.028950927734376 1.9545 7.105450927734376 1.9027499999999997 Q 7.181950927734376 1.851 7.283950927734376 1.851 M 8.197423095703126 1.851 Q 8.254423095703126 1.851 8.292673095703126 1.8659999999999999 Q 8.330923095703126 1.8809999999999998 8.356423095703125 1.908 Q 8.384923095703126 1.9379999999999997 8.396923095703126 1.9829999999999999 Q 8.408923095703125 2.0279999999999996 8.408923095703125 2.1045 L 8.408923095703125 2.505 Q 8.408923095703125 2.568 8.435173095703126 2.5905 Q 8.461423095703125 2.613 8.522923095703126 2.613 L 8.522923095703126 2.6445 Q 8.497423095703125 2.643 8.444923095703126 2.6407499999999997 Q 8.392423095703126 2.6385 8.342923095703126 2.6385 Q 8.293423095703126 2.6385 8.246173095703126 2.6407499999999997 Q 8.198923095703126 2.643 8.174923095703125 2.6445 L 8.174923095703125 2.613 Q 8.228923095703125 2.613 8.251423095703126 2.5905 Q 8.273923095703125 2.568 8.273923095703125 2.505 L 8.273923095703125 2.0715 Q 8.273923095703125 2.025 8.266423095703125 1.9859999999999998 Q 8.258923095703125 1.9469999999999998 8.232673095703126 1.9229999999999998 Q 8.206423095703126 1.8989999999999998 8.152423095703126 1.8989999999999998 Q 8.089423095703125 1.8989999999999998 8.042173095703125 1.9349999999999998 Q 7.994923095703125 1.9709999999999999 7.968673095703125 2.03325 Q 7.942423095703125 2.0955 7.942423095703125 2.1719999999999997 L 7.942423095703125 2.505 Q 7.942423095703125 2.568 7.964923095703126 2.5905 Q 7.987423095703126 2.613 8.041423095703125 2.613 L 8.041423095703125 2.6445 Q 8.017423095703126 2.643 7.970173095703125 2.6407499999999997 Q 7.922923095703125 2.6385 7.873423095703125 2.6385 Q 7.823923095703126 2.6385 7.771423095703126 2.6407499999999997 Q 7.718923095703126 2.643 7.6934230957031255 2.6445 L 7.6934230957031255 2.613 Q 7.754923095703126 2.613 7.781173095703125 2.5905 Q 7.807423095703125 2.568 7.807423095703125 2.505 L 7.807423095703125 2.0355 Q 7.807423095703125 1.968 7.783423095703125 1.9357499999999999 Q 7.759423095703125 1.9034999999999997 7.6934230957031255 1.9034999999999997 L 7.6934230957031255 1.8719999999999999 Q 7.741423095703126 1.8764999999999998 7.7864230957031255 1.8764999999999998 Q 7.829923095703125 1.8764999999999998 7.869673095703126 1.8712499999999999 Q 7.909423095703126 1.8659999999999999 7.942423095703125 1.8554999999999997 L 7.942423095703125 2.0324999999999998 Q 7.981423095703126 1.9304999999999999 8.051173095703126 1.8907499999999997 Q 8.120923095703125 1.851 8.197423095703126 1.851 M 8.845400390625 1.6229999999999998 L 8.845400390625 1.8735 L 9.067400390625 1.8735 L 9.067400390625 1.9034999999999997 L 8.845400390625 1.9034999999999997 L 8.845400390625 2.484 Q 8.845400390625 2.5545 8.870900390625 2.5829999999999997 Q 8.896400390625 2.6115 8.941400390625 2.6115 Q 8.986400390625 2.6115 9.019400390625 2.57475 Q 9.052400390625 2.538 9.076400390625 2.4509999999999996 L 9.106400390625 2.4585 Q 9.091400390625001 2.5454999999999997 9.047150390625001 2.6054999999999997 Q 9.002900390625001 2.6654999999999998 8.911400390625001 2.6654999999999998 Q 8.860400390625001 2.6654999999999998 8.827400390625 2.6527499999999997 Q 8.794400390625 2.6399999999999997 8.768900390625001 2.6159999999999997 Q 8.735900390625 2.5814999999999997 8.723150390625001 2.5334999999999996 Q 8.710400390625 2.4855 8.710400390625 2.4059999999999997 L 8.710400390625 1.9034999999999997 L 8.566400390625 1.9034999999999997 L 8.566400390625 1.8735 L 8.710400390625 1.8735 L 8.710400390625 1.644 Q 8.747900390625 1.6424999999999998 8.782400390625 1.638 Q 8.816900390625001 1.6334999999999997 8.845400390625 1.6229999999999998" fill="#ffffff" fill-rule="nonzero"></path></g><g><path d=" M 0.46725 3.6822 Q 0.46725 3.7219499999999996 0.447 3.753075 Q 0.42675 3.7842 0.392625 3.801825 Q 0.3585 3.81945 0.318 3.81945 L 0.06675 3.81945 L 0.06675 3.28695 L 0.32325 3.28695 Q 0.36075 3.28695 0.388125 3.306825 Q 0.41550000000000004 3.3266999999999998 0.43012500000000004 3.3578249999999996 Q 0.44475000000000003 3.38895 0.44475000000000003 3.4227 Q 0.44475000000000003 3.4624499999999996 0.4245 3.4962 Q 0.40425 3.52995 0.36825 3.5464499999999997 Q 0.41400000000000003 3.5599499999999997 0.440625 3.5967 Q 0.46725 3.63345 0.46725 3.6822 M 0.41475 3.6731999999999996 Q 0.41475 3.6462 0.40275 3.623325 Q 0.39075 3.60045 0.370125 3.5862 Q 0.34950000000000003 3.5719499999999997 0.32325 3.5719499999999997 L 0.11925000000000001 3.5719499999999997 L 0.11925000000000001 3.7737 L 0.318 3.7737 Q 0.34500000000000003 3.7737 0.36675 3.7594499999999997 Q 0.3885 3.7451999999999996 0.401625 3.7223249999999997 Q 0.41475 3.6994499999999997 0.41475 3.6731999999999996 M 0.11925000000000001 3.3327 L 0.11925000000000001 3.5292 L 0.30225 3.5292 Q 0.3285 3.5292 0.34875 3.515325 Q 0.369 3.5014499999999997 0.381 3.4789499999999998 Q 0.393 3.45645 0.393 3.4309499999999997 Q 0.393 3.4039499999999996 0.38175000000000003 3.3818249999999996 Q 0.3705 3.3596999999999997 0.35100000000000003 3.3461999999999996 Q 0.3315 3.3327 0.30675 3.3327 L 0.11925000000000001 3.3327 M 0.7297617187500001 3.8269499999999996 Q 0.68776171875 3.8269499999999996 0.65213671875 3.810825 Q 0.6165117187500001 3.7946999999999997 0.5906367187500001 3.766575 Q 0.56476171875 3.73845 0.55051171875 3.702075 Q 0.5362617187500001 3.6656999999999997 0.5362617187500001 3.6252 Q 0.5362617187500001 3.5831999999999997 0.55051171875 3.5468249999999997 Q 0.56476171875 3.5104499999999996 0.59101171875 3.482325 Q 0.61726171875 3.4541999999999997 0.65288671875 3.4380749999999995 Q 0.6885117187500001 3.42195 0.7305117187500001 3.42195 Q 0.7725117187500001 3.42195 0.8077617187500001 3.4380749999999995 Q 0.8430117187500001 3.4541999999999997 0.86926171875 3.482325 Q 0.8955117187500001 3.5104499999999996 0.90976171875 3.5468249999999997 Q 0.9240117187500001 3.5831999999999997 0.9240117187500001 3.6252 Q 0.9240117187500001 3.6656999999999997 0.90976171875 3.702075 Q 0.8955117187500001 3.73845 0.86963671875 3.766575 Q 0.8437617187500001 3.7946999999999997 0.8081367187500001 3.810825 Q 0.7725117187500001 3.8269499999999996 0.7297617187500001 3.8269499999999996 M 0.58801171875 3.6259499999999996 Q 0.58801171875 3.66945 0.6071367187500001 3.705075 Q 0.62626171875 3.7407 0.65851171875 3.761325 Q 0.69076171875 3.7819499999999997 0.7297617187500001 3.7819499999999997 Q 0.76876171875 3.7819499999999997 0.8010117187500001 3.76095 Q 0.83326171875 3.73995 0.8527617187500001 3.703575 Q 0.8722617187500001 3.6672 0.8722617187500001 3.62445 Q 0.8722617187500001 3.5809499999999996 0.8527617187500001 3.5449499999999996 Q 0.83326171875 3.5089499999999996 0.8010117187500001 3.4879499999999997 Q 0.76876171875 3.4669499999999998 0.7297617187500001 3.4669499999999998 Q 0.69076171875 3.4669499999999998 0.65888671875 3.4886999999999997 Q 0.6270117187500001 3.5104499999999996 0.6075117187500001 3.5460749999999996 Q 0.58801171875 3.5816999999999997 0.58801171875 3.6259499999999996 M 1.0132397460937501 3.6582 L 1.0132397460937501 3.4286999999999996 L 1.06423974609375 3.4286999999999996 L 1.06423974609375 3.6491999999999996 Q 1.06423974609375 3.71595 1.08711474609375 3.74895 Q 1.10998974609375 3.7819499999999997 1.1549897460937502 3.7819499999999997 Q 1.1849897460937502 3.7819499999999997 1.2131147460937501 3.7688249999999996 Q 1.24123974609375 3.7556999999999996 1.26298974609375 3.731325 Q 1.2847397460937502 3.70695 1.2959897460937502 3.6746999999999996 L 1.2959897460937502 3.4286999999999996 L 1.34698974609375 3.4286999999999996 L 1.34698974609375 3.7579499999999997 Q 1.34698974609375 3.7684499999999996 1.35148974609375 3.773325 Q 1.35598974609375 3.7782 1.3649897460937501 3.7789499999999996 L 1.3649897460937501 3.81945 Q 1.35598974609375 3.8202 1.3507397460937502 3.820575 Q 1.34548974609375 3.82095 1.34098974609375 3.82095 Q 1.3259897460937502 3.81945 1.3151147460937502 3.80895 Q 1.3042397460937503 3.79845 1.3034897460937502 3.7834499999999998 L 1.3019897460937502 3.73095 Q 1.27648974609375 3.77595 1.2326147460937502 3.80145 Q 1.18873974609375 3.8269499999999996 1.1377397460937502 3.8269499999999996 Q 1.07623974609375 3.8269499999999996 1.0447397460937502 3.7842 Q 1.0132397460937501 3.74145 1.0132397460937501 3.6582 M 1.7984853515625001 3.81945 L 1.7474853515625002 3.81945 L 1.7474853515625002 3.6012 Q 1.7474853515625002 3.5321999999999996 1.7272353515625003 3.5003249999999997 Q 1.7069853515625002 3.46845 1.6634853515625 3.46845 Q 1.6334853515625003 3.46845 1.6042353515625 3.483075 Q 1.5749853515625003 3.4977 1.5528603515625001 3.5228249999999997 Q 1.5307353515625002 3.5479499999999997 1.5209853515625003 3.5801999999999996 L 1.5209853515625003 3.81945 L 1.4699853515625 3.81945 L 1.4699853515625 3.4286999999999996 L 1.5164853515625003 3.4286999999999996 L 1.5164853515625003 3.5172 Q 1.5322353515625002 3.4886999999999997 1.5577353515625 3.4673249999999998 Q 1.5832353515625002 3.44595 1.6154853515625003 3.43395 Q 1.6477353515625002 3.42195 1.6822353515625001 3.42195 Q 1.7144853515625003 3.42195 1.7369853515625002 3.43395 Q 1.7594853515625002 3.44595 1.7729853515625003 3.468075 Q 1.7864853515625003 3.4901999999999997 1.7924853515625 3.5213249999999996 Q 1.7984853515625001 3.55245 1.7984853515625001 3.5907 L 1.7984853515625001 3.81945 M 1.8884912109375003 3.6252 Q 1.8884912109375003 3.5696999999999997 1.9113662109375003 3.5235749999999997 Q 1.9342412109375002 3.4774499999999997 1.9747412109375002 3.4497 Q 2.0152412109375004 3.42195 2.0669912109375 3.42195 Q 2.1157412109375002 3.42195 2.1543662109375004 3.447825 Q 2.1929912109375005 3.4737 2.2147412109375004 3.5104499999999996 L 2.2147412109375004 3.27195 L 2.2657412109375 3.27195 L 2.2657412109375 3.7579499999999997 Q 2.2657412109375 3.7684499999999996 2.2702412109375003 3.773325 Q 2.2747412109375 3.7782 2.2837412109375004 3.7789499999999996 L 2.2837412109375004 3.81945 Q 2.2687412109375003 3.8217 2.2604912109375004 3.82095 Q 2.2447412109375002 3.8202 2.2327412109375 3.8082 Q 2.2207412109375 3.7962 2.2207412109375 3.7819499999999997 L 2.2207412109375 3.7436999999999996 Q 2.1974912109375 3.7819499999999997 2.1577412109375 3.8044499999999997 Q 2.1179912109375003 3.8269499999999996 2.0752412109375005 3.8269499999999996 Q 2.0347412109375003 3.8269499999999996 2.0006162109375003 3.81045 Q 1.9664912109375003 3.7939499999999997 1.9413662109375003 3.76545 Q 1.9162412109375002 3.7369499999999998 1.9023662109375004 3.7005749999999997 Q 1.8884912109375003 3.6641999999999997 1.8884912109375003 3.6252 M 2.2147412109375004 3.6851999999999996 L 2.2147412109375004 3.56445 Q 2.2049912109375 3.5374499999999998 2.1832412109375 3.515325 Q 2.1614912109375 3.4932 2.1341162109375 3.480075 Q 2.1067412109375003 3.4669499999999998 2.0797412109375 3.4669499999999998 Q 2.0482412109375003 3.4669499999999998 2.0227412109375003 3.480075 Q 1.9972412109375002 3.4932 1.9788662109375001 3.5157 Q 1.9604912109375003 3.5382 1.9507412109375002 3.5667 Q 1.9409912109375003 3.5951999999999997 1.9409912109375003 3.6252 Q 1.9409912109375003 3.6567 1.9518662109375002 3.6851999999999996 Q 1.9627412109375002 3.7137 1.9829912109375003 3.7358249999999997 Q 2.0032412109375004 3.7579499999999997 2.0294912109375 3.7699499999999997 Q 2.0557412109375 3.7819499999999997 2.0864912109375005 3.7819499999999997 Q 2.1059912109375003 3.7819499999999997 2.1269912109375 3.77445 Q 2.1479912109375 3.7669499999999996 2.1671162109375004 3.753825 Q 2.1862412109375002 3.7407 2.1989912109375003 3.7226999999999997 Q 2.2117412109375003 3.7047 2.2147412109375004 3.6851999999999996 M 2.3909981689453126 3.27195 L 2.4419981689453127 3.27195 L 2.4419981689453127 3.73095 Q 2.4419981689453127 3.7601999999999998 2.4524981689453127 3.7691999999999997 Q 2.4629981689453126 3.7782 2.4779981689453128 3.7782 Q 2.4914981689453124 3.7782 2.5049981689453125 3.7752 Q 2.5184981689453125 3.7721999999999998 2.5282481689453125 3.7691999999999997 L 2.537248168945313 3.81045 Q 2.5229981689453127 3.8164499999999997 2.5023731689453124 3.8202 Q 2.4817481689453125 3.82395 2.466748168945313 3.82395 Q 2.4322481689453124 3.82395 2.4116231689453125 3.8036999999999996 Q 2.3909981689453126 3.7834499999999998 2.3909981689453126 3.7481999999999998 L 2.3909981689453126 3.27195 M 2.7689776611328125 3.8269499999999996 Q 2.7269776611328123 3.8269499999999996 2.6909776611328122 3.810825 Q 2.6549776611328126 3.7946999999999997 2.6287276611328125 3.766575 Q 2.6024776611328124 3.73845 2.5878526611328123 3.7016999999999998 Q 2.5732276611328126 3.6649499999999997 2.5732276611328126 3.62295 Q 2.5732276611328126 3.5681999999999996 2.5983526611328123 3.5224499999999996 Q 2.6234776611328123 3.4766999999999997 2.6677276611328122 3.449325 Q 2.7119776611328126 3.42195 2.7682276611328125 3.42195 Q 2.8259776611328125 3.42195 2.8691026611328123 3.4497 Q 2.9122276611328126 3.4774499999999997 2.9369776611328122 3.5228249999999997 Q 2.9617276611328123 3.5681999999999996 2.9617276611328123 3.6222 Q 2.9617276611328123 3.6281999999999996 2.9617276611328123 3.633825 Q 2.9617276611328123 3.6394499999999996 2.9609776611328122 3.6424499999999997 L 2.6264776611328124 3.6424499999999997 Q 2.6302276611328126 3.68445 2.6501026611328125 3.717075 Q 2.6699776611328123 3.7497 2.7018526611328126 3.7688249999999996 Q 2.7337276611328125 3.78795 2.7712276611328126 3.78795 Q 2.8094776611328123 3.78795 2.8436026611328122 3.7684499999999996 Q 2.8777276611328126 3.74895 2.8912276611328123 3.71745 L 2.9354776611328126 3.72945 Q 2.9234776611328126 3.7571999999999997 2.8987276611328125 3.7796999999999996 Q 2.8739776611328125 3.8021999999999996 2.8406026611328126 3.8145749999999996 Q 2.8072276611328126 3.8269499999999996 2.7689776611328125 3.8269499999999996 M 2.6249776611328124 3.6056999999999997 L 2.9137276611328122 3.6056999999999997 Q 2.9107276611328126 3.56295 2.8908526611328123 3.5307 Q 2.8709776611328124 3.4984499999999996 2.8391026611328125 3.480075 Q 2.8072276611328126 3.4616999999999996 2.7689776611328125 3.4616999999999996 Q 2.7307276611328124 3.4616999999999996 2.6992276611328125 3.480075 Q 2.6677276611328122 3.4984499999999996 2.6478526611328124 3.531075 Q 2.6279776611328125 3.5637 2.6249776611328124 3.6056999999999997 M 3.1762089843749997 3.8269499999999996 Q 3.1282089843749996 3.8269499999999996 3.086958984375 3.8112 Q 3.0457089843749996 3.7954499999999998 3.015708984375 3.7632 L 3.0367089843749997 3.7272 Q 3.0697089843749996 3.7579499999999997 3.103083984375 3.7718249999999998 Q 3.136458984375 3.7857 3.1739589843749996 3.7857 Q 3.219708984375 3.7857 3.2482089843749997 3.7673249999999996 Q 3.276708984375 3.74895 3.276708984375 3.71445 Q 3.276708984375 3.6912 3.262833984375 3.678825 Q 3.2489589843749997 3.6664499999999998 3.2230839843749997 3.658575 Q 3.197208984375 3.6506999999999996 3.161208984375 3.6416999999999997 Q 3.1207089843749998 3.6304499999999997 3.0933339843749996 3.6180749999999997 Q 3.065958984375 3.6056999999999997 3.052083984375 3.586575 Q 3.0382089843749998 3.56745 3.0382089843749998 3.5366999999999997 Q 3.0382089843749998 3.4984499999999996 3.0573339843749996 3.473325 Q 3.076458984375 3.4482 3.109833984375 3.435075 Q 3.1432089843749997 3.42195 3.184458984375 3.42195 Q 3.229458984375 3.42195 3.263958984375 3.4362 Q 3.298458984375 3.45045 3.320208984375 3.4759499999999997 L 3.2954589843749997 3.5104499999999996 Q 3.274458984375 3.4864499999999996 3.2455839843749996 3.4748249999999996 Q 3.216708984375 3.4631999999999996 3.181458984375 3.4631999999999996 Q 3.157458984375 3.4631999999999996 3.135708984375 3.469575 Q 3.113958984375 3.4759499999999997 3.100083984375 3.4905749999999998 Q 3.086208984375 3.5052 3.086208984375 3.5307 Q 3.086208984375 3.5517 3.0967089843749998 3.563325 Q 3.1072089843749997 3.57495 3.1282089843749996 3.5828249999999997 Q 3.149208984375 3.5907 3.179958984375 3.5997 Q 3.2242089843749997 3.6117 3.2572089843749996 3.624075 Q 3.290208984375 3.63645 3.3082089843749998 3.65595 Q 3.3262089843749996 3.6754499999999997 3.3262089843749996 3.7106999999999997 Q 3.3262089843749996 3.76545 3.284958984375 3.7962 Q 3.243708984375 3.8269499999999996 3.1762089843749997 3.8269499999999996 M 3.545937377929687 3.8269499999999996 Q 3.497937377929687 3.8269499999999996 3.456687377929687 3.8112 Q 3.415437377929687 3.7954499999999998 3.385437377929687 3.7632 L 3.406437377929687 3.7272 Q 3.439437377929687 3.7579499999999997 3.472812377929687 3.7718249999999998 Q 3.5061873779296873 3.7857 3.543687377929687 3.7857 Q 3.5894373779296873 3.7857 3.617937377929687 3.7673249999999996 Q 3.6464373779296873 3.74895 3.6464373779296873 3.71445 Q 3.6464373779296873 3.6912 3.632562377929687 3.678825 Q 3.618687377929687 3.6664499999999998 3.592812377929687 3.658575 Q 3.566937377929687 3.6506999999999996 3.5309373779296873 3.6416999999999997 Q 3.490437377929687 3.6304499999999997 3.463062377929687 3.6180749999999997 Q 3.4356873779296873 3.6056999999999997 3.421812377929687 3.586575 Q 3.407937377929687 3.56745 3.407937377929687 3.5366999999999997 Q 3.407937377929687 3.4984499999999996 3.427062377929687 3.473325 Q 3.446187377929687 3.4482 3.479562377929687 3.435075 Q 3.512937377929687 3.42195 3.5541873779296873 3.42195 Q 3.5991873779296872 3.42195 3.633687377929687 3.4362 Q 3.668187377929687 3.45045 3.689937377929687 3.4759499999999997 L 3.665187377929687 3.5104499999999996 Q 3.644187377929687 3.4864499999999996 3.615312377929687 3.4748249999999996 Q 3.586437377929687 3.4631999999999996 3.551187377929687 3.4631999999999996 Q 3.527187377929687 3.4631999999999996 3.5054373779296872 3.469575 Q 3.4836873779296873 3.4759499999999997 3.469812377929687 3.4905749999999998 Q 3.455937377929687 3.5052 3.455937377929687 3.5307 Q 3.455937377929687 3.5517 3.466437377929687 3.563325 Q 3.476937377929687 3.57495 3.497937377929687 3.5828249999999997 Q 3.5189373779296873 3.5907 3.549687377929687 3.5997 Q 3.593937377929687 3.6117 3.626937377929687 3.624075 Q 3.659937377929687 3.63645 3.677937377929687 3.65595 Q 3.6959373779296874 3.6754499999999997 3.6959373779296874 3.7106999999999997 Q 3.6959373779296874 3.76545 3.654687377929687 3.7962 Q 3.613437377929687 3.8269499999999996 3.545937377929687 3.8269499999999996 M 3.996669433593749 3.81945 L 3.996669433593749 3.28695 L 4.2171694335937495 3.28695 Q 4.251669433593749 3.28695 4.280544433593749 3.3011999999999997 Q 4.3094194335937495 3.31545 4.330419433593749 3.339825 Q 4.351419433593749 3.3642 4.36341943359375 3.3938249999999996 Q 4.375419433593749 3.42345 4.375419433593749 3.4541999999999997 Q 4.375419433593749 3.4977 4.3562944335937495 3.5363249999999997 Q 4.33716943359375 3.57495 4.302669433593749 3.59895 Q 4.26816943359375 3.62295 4.22166943359375 3.62295 L 4.049169433593749 3.62295 L 4.049169433593749 3.81945 L 3.996669433593749 3.81945 M 4.049169433593749 3.57645 L 4.21941943359375 3.57645 Q 4.250919433593749 3.57645 4.274169433593749 3.5591999999999997 Q 4.297419433593749 3.54195 4.3101694335937495 3.5141999999999998 Q 4.322919433593749 3.4864499999999996 4.322919433593749 3.4541999999999997 Q 4.322919433593749 3.4212 4.307919433593749 3.3934499999999996 Q 4.292919433593749 3.3657 4.26854443359375 3.3495749999999997 Q 4.24416943359375 3.33345 4.214919433593749 3.33345 L 4.049169433593749 3.33345 L 4.049169433593749 3.57645 M 4.619169067382812 3.8269499999999996 Q 4.577169067382812 3.8269499999999996 4.541544067382812 3.810825 Q 4.505919067382812 3.7946999999999997 4.480044067382812 3.766575 Q 4.4541690673828125 3.73845 4.439919067382812 3.702075 Q 4.425669067382812 3.6656999999999997 4.425669067382812 3.6252 Q 4.425669067382812 3.5831999999999997 4.439919067382812 3.5468249999999997 Q 4.4541690673828125 3.5104499999999996 4.480419067382812 3.482325 Q 4.506669067382812 3.4541999999999997 4.542294067382812 3.4380749999999995 Q 4.577919067382812 3.42195 4.619919067382812 3.42195 Q 4.661919067382812 3.42195 4.697169067382812 3.4380749999999995 Q 4.732419067382812 3.4541999999999997 4.7586690673828125 3.482325 Q 4.784919067382812 3.5104499999999996 4.799169067382812 3.5468249999999997 Q 4.813419067382812 3.5831999999999997 4.813419067382812 3.6252 Q 4.813419067382812 3.6656999999999997 4.799169067382812 3.702075 Q 4.784919067382812 3.73845 4.7590440673828125 3.766575 Q 4.733169067382812 3.7946999999999997 4.697544067382812 3.810825 Q 4.661919067382812 3.8269499999999996 4.619169067382812 3.8269499999999996 M 4.4774190673828125 3.6259499999999996 Q 4.4774190673828125 3.66945 4.496544067382812 3.705075 Q 4.515669067382812 3.7407 4.5479190673828125 3.761325 Q 4.580169067382812 3.7819499999999997 4.619169067382812 3.7819499999999997 Q 4.658169067382812 3.7819499999999997 4.690419067382812 3.76095 Q 4.722669067382812 3.73995 4.742169067382812 3.703575 Q 4.761669067382812 3.6672 4.761669067382812 3.62445 Q 4.761669067382812 3.5809499999999996 4.742169067382812 3.5449499999999996 Q 4.722669067382812 3.5089499999999996 4.690419067382812 3.4879499999999997 Q 4.658169067382812 3.4669499999999998 4.619169067382812 3.4669499999999998 Q 4.580169067382812 3.4669499999999998 4.5482940673828125 3.4886999999999997 Q 4.516419067382812 3.5104499999999996 4.496919067382812 3.5460749999999996 Q 4.4774190673828125 3.5816999999999997 4.4774190673828125 3.6259499999999996 M 5.034647094726562 3.8269499999999996 Q 4.986647094726562 3.8269499999999996 4.945397094726562 3.8112 Q 4.904147094726563 3.7954499999999998 4.874147094726562 3.7632 L 4.895147094726562 3.7272 Q 4.928147094726563 3.7579499999999997 4.961522094726562 3.7718249999999998 Q 4.9948970947265625 3.7857 5.032397094726562 3.7857 Q 5.078147094726562 3.7857 5.106647094726562 3.7673249999999996 Q 5.1351470947265625 3.74895 5.1351470947265625 3.71445 Q 5.1351470947265625 3.6912 5.121272094726562 3.678825 Q 5.107397094726562 3.6664499999999998 5.081522094726562 3.658575 Q 5.055647094726562 3.6506999999999996 5.019647094726563 3.6416999999999997 Q 4.979147094726562 3.6304499999999997 4.951772094726563 3.6180749999999997 Q 4.9243970947265625 3.6056999999999997 4.910522094726562 3.586575 Q 4.896647094726562 3.56745 4.896647094726562 3.5366999999999997 Q 4.896647094726562 3.4984499999999996 4.915772094726562 3.473325 Q 4.934897094726562 3.4482 4.968272094726562 3.435075 Q 5.001647094726563 3.42195 5.042897094726563 3.42195 Q 5.0878970947265625 3.42195 5.122397094726562 3.4362 Q 5.156897094726562 3.45045 5.178647094726562 3.4759499999999997 L 5.153897094726562 3.5104499999999996 Q 5.132897094726562 3.4864499999999996 5.104022094726562 3.4748249999999996 Q 5.075147094726562 3.4631999999999996 5.039897094726562 3.4631999999999996 Q 5.015897094726562 3.4631999999999996 4.9941470947265625 3.469575 Q 4.9723970947265625 3.4759499999999997 4.958522094726562 3.4905749999999998 Q 4.944647094726562 3.5052 4.944647094726562 3.5307 Q 4.944647094726562 3.5517 4.955147094726563 3.563325 Q 4.965647094726562 3.57495 4.986647094726562 3.5828249999999997 Q 5.007647094726562 3.5907 5.038397094726562 3.5997 Q 5.082647094726562 3.6117 5.115647094726563 3.624075 Q 5.148647094726562 3.63645 5.166647094726562 3.65595 Q 5.184647094726563 3.6754499999999997 5.184647094726563 3.7106999999999997 Q 5.184647094726563 3.76545 5.143397094726563 3.7962 Q 5.102147094726562 3.8269499999999996 5.034647094726562 3.8269499999999996 M 5.40437548828125 3.8269499999999996 Q 5.35637548828125 3.8269499999999996 5.31512548828125 3.8112 Q 5.27387548828125 3.7954499999999998 5.24387548828125 3.7632 L 5.26487548828125 3.7272 Q 5.29787548828125 3.7579499999999997 5.33125048828125 3.7718249999999998 Q 5.36462548828125 3.7857 5.40212548828125 3.7857 Q 5.44787548828125 3.7857 5.47637548828125 3.7673249999999996 Q 5.50487548828125 3.74895 5.50487548828125 3.71445 Q 5.50487548828125 3.6912 5.49100048828125 3.678825 Q 5.47712548828125 3.6664499999999998 5.45125048828125 3.658575 Q 5.42537548828125 3.6506999999999996 5.38937548828125 3.6416999999999997 Q 5.34887548828125 3.6304499999999997 5.32150048828125 3.6180749999999997 Q 5.29412548828125 3.6056999999999997 5.28025048828125 3.586575 Q 5.26637548828125 3.56745 5.26637548828125 3.5366999999999997 Q 5.26637548828125 3.4984499999999996 5.28550048828125 3.473325 Q 5.30462548828125 3.4482 5.33800048828125 3.435075 Q 5.3713754882812506 3.42195 5.41262548828125 3.42195 Q 5.45762548828125 3.42195 5.49212548828125 3.4362 Q 5.52662548828125 3.45045 5.54837548828125 3.4759499999999997 L 5.52362548828125 3.5104499999999996 Q 5.50262548828125 3.4864499999999996 5.47375048828125 3.4748249999999996 Q 5.44487548828125 3.4631999999999996 5.40962548828125 3.4631999999999996 Q 5.38562548828125 3.4631999999999996 5.36387548828125 3.469575 Q 5.34212548828125 3.4759499999999997 5.32825048828125 3.4905749999999998 Q 5.31437548828125 3.5052 5.31437548828125 3.5307 Q 5.31437548828125 3.5517 5.324875488281251 3.563325 Q 5.33537548828125 3.57495 5.35637548828125 3.5828249999999997 Q 5.37737548828125 3.5907 5.40812548828125 3.5997 Q 5.45237548828125 3.6117 5.48537548828125 3.624075 Q 5.51837548828125 3.63645 5.53637548828125 3.65595 Q 5.55437548828125 3.6754499999999997 5.55437548828125 3.7106999999999997 Q 5.55437548828125 3.76545 5.513125488281251 3.7962 Q 5.47187548828125 3.8269499999999996 5.40437548828125 3.8269499999999996 M 5.645853881835938 3.81945 L 5.645853881835938 3.4286999999999996 L 5.6968538818359375 3.4286999999999996 L 5.6968538818359375 3.81945 L 5.645853881835938 3.81945 M 5.645853881835938 3.3469499999999996 L 5.645853881835938 3.27195 L 5.6968538818359375 3.27195 L 5.6968538818359375 3.3469499999999996 L 5.645853881835938 3.3469499999999996 M 6.008117065429688 3.8269499999999996 Q 5.962367065429688 3.8269499999999996 5.923367065429688 3.8033249999999996 Q 5.8843670654296885 3.7796999999999996 5.8626170654296885 3.7436999999999996 L 5.8626170654296885 3.81945 L 5.816867065429689 3.81945 L 5.816867065429689 3.27195 L 5.867867065429688 3.27195 L 5.867867065429688 3.5104499999999996 Q 5.894117065429688 3.4707 5.9308670654296884 3.446325 Q 5.967617065429688 3.42195 6.016367065429688 3.42195 Q 6.057617065429688 3.42195 6.090242065429688 3.4391999999999996 Q 6.122867065429689 3.45645 6.146117065429689 3.4853249999999996 Q 6.169367065429689 3.5141999999999998 6.181367065429688 3.550575 Q 6.193367065429689 3.58695 6.193367065429689 3.6252 Q 6.193367065429689 3.6664499999999998 6.179492065429688 3.70245 Q 6.1656170654296885 3.73845 6.140117065429688 3.766575 Q 6.114617065429688 3.7946999999999997 6.081242065429688 3.810825 Q 6.047867065429688 3.8269499999999996 6.008117065429688 3.8269499999999996 M 5.996117065429688 3.7819499999999997 Q 6.027617065429689 3.7819499999999997 6.054617065429688 3.7691999999999997 Q 6.081617065429688 3.7564499999999996 6.101117065429689 3.7339499999999997 Q 6.1206170654296885 3.7114499999999997 6.131117065429688 3.683325 Q 6.141617065429688 3.6552 6.141617065429688 3.6252 Q 6.141617065429688 3.5839499999999997 6.123992065429688 3.5475749999999997 Q 6.106367065429688 3.5111999999999997 6.075242065429689 3.4890749999999997 Q 6.044117065429688 3.4669499999999998 6.0021170654296885 3.4669499999999998 Q 5.972117065429688 3.4669499999999998 5.946242065429688 3.48045 Q 5.920367065429688 3.49395 5.900492065429688 3.516075 Q 5.880617065429688 3.5382 5.867867065429688 3.56445 L 5.867867065429688 3.6859499999999996 Q 5.870867065429688 3.7062 5.883617065429688 3.7238249999999997 Q 5.896367065429688 3.74145 5.915492065429688 3.7542 Q 5.934617065429689 3.7669499999999996 5.9556170654296885 3.77445 Q 5.976617065429688 3.7819499999999997 5.996117065429688 3.7819499999999997 M 6.287120361328126 3.81945 L 6.287120361328126 3.4286999999999996 L 6.338120361328126 3.4286999999999996 L 6.338120361328126 3.81945 L 6.287120361328126 3.81945 M 6.287120361328126 3.3469499999999996 L 6.287120361328126 3.27195 L 6.338120361328126 3.27195 L 6.338120361328126 3.3469499999999996 L 6.287120361328126 3.3469499999999996 M 6.460383544921877 3.27195 L 6.511383544921876 3.27195 L 6.511383544921876 3.73095 Q 6.511383544921876 3.7601999999999998 6.521883544921876 3.7691999999999997 Q 6.532383544921876 3.7782 6.5473835449218765 3.7782 Q 6.560883544921876 3.7782 6.574383544921877 3.7752 Q 6.587883544921876 3.7721999999999998 6.597633544921877 3.7691999999999997 L 6.606633544921876 3.81045 Q 6.592383544921876 3.8164499999999997 6.5717585449218765 3.8202 Q 6.551133544921877 3.82395 6.536133544921876 3.82395 Q 6.5016335449218765 3.82395 6.481008544921877 3.8036999999999996 Q 6.460383544921877 3.7834499999999998 6.460383544921877 3.7481999999999998 L 6.460383544921877 3.27195 M 6.669613037109377 3.81945 L 6.669613037109377 3.4286999999999996 L 6.720613037109376 3.4286999999999996 L 6.720613037109376 3.81945 L 6.669613037109377 3.81945 M 6.669613037109377 3.3469499999999996 L 6.669613037109377 3.27195 L 6.720613037109376 3.27195 L 6.720613037109376 3.3469499999999996 L 6.669613037109377 3.3469499999999996 M 7.028126220703127 3.8007 Q 7.022126220703127 3.8029499999999996 7.0093762207031265 3.80895 Q 6.996626220703127 3.8149499999999996 6.978626220703127 3.81945 Q 6.960626220703126 3.82395 6.9396262207031265 3.82395 Q 6.917876220703127 3.82395 6.898751220703127 3.8156999999999996 Q 6.879626220703127 3.80745 6.8683762207031265 3.7905749999999996 Q 6.857126220703127 3.7737 6.857126220703127 3.74895 L 6.857126220703127 3.4692 L 6.803126220703127 3.4692 L 6.803126220703127 3.4286999999999996 L 6.857126220703127 3.4286999999999996 L 6.857126220703127 3.2966999999999995 L 6.908126220703127 3.2966999999999995 L 6.908126220703127 3.4286999999999996 L 6.998126220703127 3.4286999999999996 L 6.998126220703127 3.4692 L 6.908126220703127 3.4692 L 6.908126220703127 3.7346999999999997 Q 6.909626220703127 3.7556999999999996 6.923501220703127 3.7662 Q 6.937376220703126 3.7767 6.955376220703127 3.7767 Q 6.976376220703127 3.7767 6.993626220703127 3.7695749999999997 Q 7.0108762207031265 3.76245 7.014626220703127 3.7594499999999997 L 7.028126220703127 3.8007 M 7.099392700195315 3.81945 L 7.099392700195315 3.4286999999999996 L 7.150392700195314 3.4286999999999996 L 7.150392700195314 3.81945 L 7.099392700195315 3.81945 M 7.099392700195315 3.3469499999999996 L 7.099392700195315 3.27195 L 7.150392700195314 3.27195 L 7.150392700195314 3.3469499999999996 L 7.099392700195315 3.3469499999999996 M 7.439155883789065 3.8269499999999996 Q 7.397155883789065 3.8269499999999996 7.361155883789065 3.810825 Q 7.325155883789065 3.7946999999999997 7.298905883789065 3.766575 Q 7.272655883789065 3.73845 7.258030883789065 3.7016999999999998 Q 7.243405883789065 3.6649499999999997 7.243405883789065 3.62295 Q 7.243405883789065 3.5681999999999996 7.268530883789065 3.5224499999999996 Q 7.293655883789065 3.4766999999999997 7.337905883789065 3.449325 Q 7.382155883789065 3.42195 7.4384058837890645 3.42195 Q 7.496155883789065 3.42195 7.539280883789065 3.4497 Q 7.582405883789065 3.4774499999999997 7.607155883789065 3.5228249999999997 Q 7.631905883789065 3.5681999999999996 7.631905883789065 3.6222 Q 7.631905883789065 3.6281999999999996 7.631905883789065 3.633825 Q 7.631905883789065 3.6394499999999996 7.631155883789065 3.6424499999999997 L 7.2966558837890645 3.6424499999999997 Q 7.300405883789065 3.68445 7.3202808837890645 3.717075 Q 7.340155883789065 3.7497 7.372030883789065 3.7688249999999996 Q 7.403905883789065 3.78795 7.441405883789065 3.78795 Q 7.479655883789065 3.78795 7.513780883789065 3.7684499999999996 Q 7.547905883789065 3.74895 7.561405883789065 3.71745 L 7.605655883789065 3.72945 Q 7.593655883789065 3.7571999999999997 7.568905883789065 3.7796999999999996 Q 7.544155883789065 3.8021999999999996 7.510780883789065 3.8145749999999996 Q 7.477405883789065 3.8269499999999996 7.439155883789065 3.8269499999999996 M 7.295155883789065 3.6056999999999997 L 7.583905883789065 3.6056999999999997 Q 7.580905883789065 3.56295 7.561030883789065 3.5307 Q 7.541155883789065 3.4984499999999996 7.5092808837890646 3.480075 Q 7.477405883789065 3.4616999999999996 7.439155883789065 3.4616999999999996 Q 7.400905883789065 3.4616999999999996 7.369405883789065 3.480075 Q 7.337905883789065 3.4984499999999996 7.318030883789065 3.531075 Q 7.2981558837890645 3.5637 7.295155883789065 3.6056999999999997 M 7.846387207031253 3.8269499999999996 Q 7.7983872070312525 3.8269499999999996 7.757137207031253 3.8112 Q 7.715887207031253 3.7954499999999998 7.685887207031253 3.7632 L 7.706887207031253 3.7272 Q 7.739887207031253 3.7579499999999997 7.7732622070312525 3.7718249999999998 Q 7.806637207031253 3.7857 7.8441372070312525 3.7857 Q 7.8898872070312525 3.7857 7.918387207031253 3.7673249999999996 Q 7.946887207031253 3.74895 7.946887207031253 3.71445 Q 7.946887207031253 3.6912 7.933012207031252 3.678825 Q 7.919137207031253 3.6664499999999998 7.893262207031253 3.658575 Q 7.8673872070312525 3.6506999999999996 7.831387207031253 3.6416999999999997 Q 7.790887207031252 3.6304499999999997 7.763512207031253 3.6180749999999997 Q 7.736137207031253 3.6056999999999997 7.722262207031252 3.586575 Q 7.708387207031253 3.56745 7.708387207031253 3.5366999999999997 Q 7.708387207031253 3.4984499999999996 7.7275122070312525 3.473325 Q 7.746637207031252 3.4482 7.780012207031253 3.435075 Q 7.813387207031253 3.42195 7.854637207031253 3.42195 Q 7.899637207031253 3.42195 7.934137207031252 3.4362 Q 7.968637207031253 3.45045 7.990387207031253 3.4759499999999997 L 7.965637207031253 3.5104499999999996 Q 7.944637207031253 3.4864499999999996 7.9157622070312526 3.4748249999999996 Q 7.886887207031252 3.4631999999999996 7.851637207031253 3.4631999999999996 Q 7.827637207031253 3.4631999999999996 7.805887207031253 3.469575 Q 7.784137207031253 3.4759499999999997 7.770262207031252 3.4905749999999998 Q 7.756387207031253 3.5052 7.756387207031253 3.5307 Q 7.756387207031253 3.5517 7.766887207031253 3.563325 Q 7.777387207031253 3.57495 7.7983872070312525 3.5828249999999997 Q 7.8193872070312525 3.5907 7.850137207031253 3.5997 Q 7.894387207031253 3.6117 7.927387207031253 3.624075 Q 7.9603872070312525 3.63645 7.978387207031252 3.65595 Q 7.996387207031253 3.6754499999999997 7.996387207031253 3.7106999999999997 Q 7.996387207031253 3.76545 7.955137207031253 3.7962 Q 7.9138872070312525 3.8269499999999996 7.846387207031253 3.8269499999999996" fill="#fbe585" fill-rule="nonzero"></path></g><g clip-path="url(&quot;#SvgjsClipPath1002&quot;)"><g clip-path="url(&quot;#SvgjsClipPath10003781fca1-9045-4922-b69f-f0ad1895d5da&quot;)"><path d=" M 2.8407696140038174 -6.663912688708206 L 4.062442551283419 -5.9562136844495 C 4.065011503040998 -5.956249665269208 4.06748447382941 -5.955238619056351 4.069292411719821 -5.9534131962733845 C 4.071100349610232 -5.951587773490413 4.072087548095617 -5.949105186510001 4.0720268442815 -5.946536700029776 L 4.1886326527107665 -5.878593887964073 L 4.1886326527107665 -5.878593887964073 L 5.536217617152781 -5.1030447630613125 C 5.564053234091467 -5.086589583862513 5.582190277259477 -5.057667045690589 5.584880613516346 -5.025443504860218 L 5.584880613516346 -1.9030402753305742 C 5.58512630886856 -1.864785921735602 5.562004802367825 -1.8302542787252953 5.526540632733053 -1.815910338984379 L 2.8407696140038174 -0.2646452446198895 C 2.8078942693359297 -0.24502122335476084 2.7669015175054534 -0.24502122335476084 2.7340261728375665 -0.2646452446198895 L 0.0482551541083277 -1.8159288772687079 C 0.018050861215538828 -1.834550011208485 -0.00025421298339983506 -1.8675764406653022 -0.0000370765686580728 -1.9030588136148952 L -0.0000370765686580728 -5.025462043144543 C 0.0021134331442338797 -5.060297131802418 0.0198545875801372 -5.092306124450689 0.04825515410832746 -5.1125919794907295 L 1.5124459269796096 -5.9464996234611185 L 1.5124459269796096 -5.9464996234611185 L 2.7436104658356473 -6.663931226992539 C 2.7730441718441328 -6.683488989453901 2.811335907995332 -6.683488989453901 2.8407696140038174 -6.663931226992539 Z M 1.0373282379122515 -3.7647660173524398 L 2.0263642451475175 -3.1637919159756596 L 2.579027577562987 -3.473863259662129 L 1.5608679256468982 -4.065234529756505 Z M 2.1522577340256017 -3.0086820909951033 L 2.1522577340256017 -1.7771282481681565 L 2.695429464864635 -2.0972473419609354 L 2.695429464864635 -3.3284304191013043 Z M 1.95851412450346 -1.6704960367078794 L 1.95851412450346 -2.902031341250497 L 1.4153423936644265 -2.5915706935931135 L 1.4153423936644265 -1.3603134633154328 Z M 1.842186390339128 -3.057048474809405 L 0.8435846283901098 -3.648419744903781 L 0.3781068471738199 -3.3770563388962143 L 0.36841132446976477 -3.3770563388962143 L 0.3100713436864733 -3.3383298629329827 L 1.3378152886006436 -2.766127178834769 Z M 1.2312572302776823 -1.3603134633154328 L 1.2312572302776823 -2.475261497713112 L 0.26170495987217174 -1.9225796270133104 Z M 1.1436823751075937 -2.649836521239089 L 0.18423346966137596 -3.1928784840878213 L 0.18423346966137596 -2.097265880245268 Z M 4.760501647691056 -3.6388539901900265 L 3.742749838030205 -3.0279433684129105 L 4.246768712366438 -2.7370220724382706 L 5.294052008963351 -3.328393342532647 Z M 3.626125491316609 -2.872889158285341 L 3.626125491316609 -1.6704960367078794 L 4.159527546314272 -1.3603134633154328 L 4.159527546314272 -2.562354357490645 Z M 3.4321408840981915 -1.7771282481681565 L 3.4321408840981915 -2.979539908029951 L 2.8989983650811353 -3.289703943138069 L 2.889043306396474 -2.0972473419609354 Z M 3.548468618262524 -3.1345755798731836 L 4.5666097318942835 -3.745597431356277 L 4.02343800105525 -4.06525306804083 L 2.986128301427328 -3.464278966664046 Z M 5.390636470317323 -3.1637919159756556 L 4.44034547732962 -2.6206201851366213 L 5.390636470317323 -2.067956852721152 Z M 4.3532340792677555 -2.4461193147479596 L 4.3532340792677555 -1.3603134633154328 L 5.303450919118142 -1.9030402753305742 Z M 1.6580270738150682 -5.0834127199569235 L 2.6954480031489645 -4.5016072045763025 L 2.6954480031489645 -5.0834127199569235 L 1.6580270738150682 -5.704037402722421 Z M 2.889191612671106 -4.482438618580139 L 3.926890616269937 -5.0834127199569235 L 3.926890616269937 -5.704037402722425 L 2.889191612671106 -5.1030447630613125 Z M 3.926890616269937 -4.860452774332316 L 2.889191612671106 -4.259478672955536 L 2.889191612671106 -3.6288989315053737 L 3.926890616269937 -4.23024379856874 Z M 2.6954480031489645 -4.288324243371418 L 1.6580270738150682 -4.8604527743323125 L 1.6580270738150682 -4.230151107147087 L 2.6954480031489645 -3.6288062400837213 Z M 1.7451199335926038 -5.8690281332503265 L 2.695448003148965 -5.306483895287508 L 2.695448003148965 -6.411717868696802 Z M 2.889191612671106 -5.326023246970252 L 3.8295460852584777 -5.8690281332503265 L 2.889191612671106 -6.411717868696806 Z M 2.7924217684738446 -1.9322751497173707 L 1.6095494602947926 -1.2437447314548233 L 1.5124830035482675 -1.19534127107186 L 2.7924217684738446 -0.4585000838480022 L 4.071971229428512 -1.19534127107186 Z M 0.1840851633867443 -3.493421149629202 L 0.2808735458683346 -3.5418246100121653 L 0.2808735458683346 -3.5418246100121653 L 1.4636160860570837 -4.230262336853064 L 1.4636160860570837 -5.704055941006754 L 0.18423346966137596 -4.967177677214238 Z M 4.120281998389827 -4.230262336853064 L 5.303432380833813 -3.5418246100121653 L 5.390562317180006 -3.493421149629202 L 5.390562317180006 -4.967214753782896 L 4.12022638353684 -5.704074479291083 Z" fill="#1192dc" transform="matrix(1,0,0,1,0,0)" fill-rule="evenodd"></path></g></g></g><defs><clipPath id="SvgjsClipPath1002"><path d=" M 0 -6.6785950098967595 h 5.58482499866336 v 6.4285950098967595 h -5.58482499866336 Z"></path></clipPath><clipPath id="SvgjsClipPath10003781fca1-9045-4922-b69f-f0ad1895d5da"><path d=" M 0 -6.6785950098967595 L 5.58482499866336 -6.6785950098967595 L 5.58482499866336 -0.25 L 0 -0.25 Z"></path></clipPath></defs></svg>